STARTFONT 2.1
COMMENT  
COMMENT  Copyright 1989 by Sun Microsystems, Inc. Mountain View, CA. 
COMMENT  
COMMENT  Permission to use, copy, modify, and distribute this software and 
COMMENT  its documentation for any purpose and without fee is hereby granted, 
COMMENT  provided that the above copyright notices appear in all copies and 
COMMENT  that both those copyright notices and this permission notice appear 
COMMENT  in supporting documentation, and that the name of Sun Microsystems 
COMMENT  not be used in advertising or publicity pertaining to distribution 
COMMENT  of the software without specific, written prior permission.  Sun 
COMMENT  Microsystems make no representations about the suitability of this 
COMMENT  software for any purpose.  It is provided "as is" without express or 
COMMENT  implied warranty. 
COMMENT  
COMMENT  SUN MICROSYSTEMS DISCLAIM ALL WARRANTIES WITH REGARD TO THIS 
COMMENT  SOFTWARE, INCLUDING ALL IMPLIED WARRANTIES OF MERCHANTABILITY AND 
COMMENT  FITNESS, IN NO EVENT SHALL SUN MICROSYSTEMS BE LIABLE FOR ANY 
COMMENT  SPECIAL, INDIRECT OR CONSEQUENTIAL DAMAGES OR ANY DAMAGES WHATSOEVER 
COMMENT  RESULTING FROM LOSS OF USE, DATA OR PROFITS, WHETHER IN AN ACTION OF 
COMMENT  CONTRACT, NEGLIGENCE OR OTHER TORTIOUS ACTION, ARISING OUT OF OR IN 
COMMENT  CONNECTION WITH THE USE OR PERFORMANCE OF THIS SOFTWARE. 
COMMENT  
COMMENT  ** Open Look Cursor Font ** 
COMMENT
COMMENT  @(#)olcursor.bdf 23.17 92/04/17
COMMENT
FONT -Sun-OPEN LOOK cursor-----12-120-75-75-P-455-SunOLcursor-1
SIZE 12 78 78
FONTBOUNDINGBOX 18 29 0 -17
STARTPROPERTIES 19
FONTNAME_REGISTRY ""
FAMILY_NAME "OPEN LOOK cursor"
FOUNDRY "Sun"
WEIGHT_NAME ""
SETWIDTH_NAME ""
SLANT ""
ADD_STYLE_NAME ""
PIXEL_SIZE 12
POINT_SIZE 120
RESOLUTION_X 75
RESOLUTION_Y 75
SPACING "P"
AVERAGE_WIDTH 455
CHARSET_REGISTRY "SunOLcursor"
CHARSET_ENCODING "1"
FULL_NAME "OLCursor"
FONT_ASCENT 12
FONT_DESCENT 17
DEFAULT_CHAR 0
ENDPROPERTIES
CHARS 126
STARTCHAR basic
ENCODING 0
SWIDTH 96 0
DWIDTH 16 0
BBX 16 16 0 -16
BITMAP
c000
f000
7c00
7f00
3fc0
3ff0
1ff0
1f80
0fc0
0ee0
0670
0638
001c
000e
0007
0003
ENDCHAR
STARTCHAR basic_m
ENCODING 1
SWIDTH 96 0
DWIDTH 16 0
BBX 18 18 -1 -17
BITMAP
600000
f80000
fe0000
7f8000
7fe000
3ff800
3ffc00
1ffc00
1ff800
0ff000
0ff800
07fc00
07be00
031f00
000f80
0007c0
0003c0
000180
ENDCHAR
STARTCHAR move
ENCODING 2
SWIDTH 96 0
DWIDTH 16 0
BBX 16 16 0 -16
BITMAP
C000
F000
7C00
7F00
3FC0
3FC0
1F00
1F8F
0DDF
0CF7
0067
00C7
0187
01FF
01FF
01FF
ENDCHAR
STARTCHAR move_m
ENCODING 3
SWIDTH 96 0
DWIDTH 16 0
BBX 18 18 -1 -17
BITMAP
600000
f80000
fe0000
7f8000
7fe000
3ff000
3ff000
1fe000
1fff80
0fffc0
0fffc0
06ffc0
00ffc0
00ffc0
00ffc0
00ffc0
00ffc0
007f80
ENDCHAR
STARTCHAR copy
ENCODING 4
SWIDTH 96 0
DWIDTH 16 0
BBX 16 16 0 -16
BITMAP
C000
F000
7C00
7F00
3F00
3E3C
1F7C
1BDD
019D
031D
061D
07FD
07FD
07FD
0001
01FF
ENDCHAR
STARTCHAR copy_m
ENCODING 5
SWIDTH 96 0
DWIDTH 16 0
BBX 18 18 -1 -17
BITMAP
600000
f80000
fe0000
7f8000
7fe000
3ff000
3ff000
1fe000
1ffe00
0fff00
0fff80
06ffc0
00ffc0
00ffc0
00ffc0
007fc0
003fc0
001f80
ENDCHAR
STARTCHAR busy
ENCODING 6
SWIDTH 96 0
DWIDTH 16 0
BBX 16 16 -7 -8
BITMAP
07c6
1ff7
383b
600c
600c
c006
c006
df06
c106
c106
610c
610c
3838
1ff0
07c0
0000
ENDCHAR
STARTCHAR busy_m
ENCODING 7
SWIDTH 96 0
DWIDTH 16 0
BBX 18 17 -8 -8
BITMAP
03e300
0fff80
1fffc0
3fffc0
7fff80
7fff00
ffff80
ffff80
ffff80
ffff80
ffff80
7fff00
7fff00
3ffe00
1ffc00
0ff800
03e000
ENDCHAR
STARTCHAR stop
ENCODING 8
SWIDTH 96 0
DWIDTH 16 0
BBX 9 16 0 -16
BITMAP
3e00
7f00
ff80
ff80
ff80
ff80
ff80
7f00
3e00
0800
0800
0800
0800
0800
0800
7f00
ENDCHAR
STARTCHAR stop_m
ENCODING 9
SWIDTH 96 0
DWIDTH 16 0
BBX 11 18 -1 -17
BITMAP
1f00
3f80
7fc0
ffe0
ffe0
ffe0
ffe0
ffe0
7fc0
3f80
1f00
0e00
0e00
0e00
0e00
3f80
7fc0
3f80
ENDCHAR
STARTCHAR panning
ENCODING 10
SWIDTH 96 0
DWIDTH 16 0
BBX 16 12 0 -1
BITMAP
063f
067f
0ee0
0fc0
1f80
1ff0
3ff0
3fc0
7f00
7c00
f000
c000
ENDCHAR
STARTCHAR panning_m
ENCODING 11
SWIDTH 96 0
DWIDTH 16 0
BBX 18 14 -1 -2
BITMAP
031f80
07bfc0
07ffc0
0fff80
0ff000
1ff800
1ffc00
3ffc00
3ff800
7fe000
7f8000
fe0000
f80000
600000
ENDCHAR
STARTCHAR target
ENCODING 12
SWIDTH 96 0
DWIDTH 16 0
BBX 21 21 -5 -16
BITMAP
1f0000
208000
404000
802000
802000
862000
878000
83e000
43f800
21fe00
1dff80
00ff80
00fc00
007e00
007700
003380
0031c0
0000e0
000070
000038
000018
ENDCHAR
STARTCHAR target_m
ENCODING 13
SWIDTH 96 0
DWIDTH 16 0
BBX 23 23 -6 -17
BITMAP
0f8000
1fc000
306000
603000
c01800
c31800
c7d800
c7f800
c3fc00
63ff00
31ffc0
1fffe0
0fffe0
00ffc0
007f80
007fc0
003fe0
003df0
0018f8
00007c
00003e
00001e
00000c
ENDCHAR
STARTCHAR nouse
ENCODING 14
SWIDTH 96 0
DWIDTH 16 0
BBX 1 1 0 0
BITMAP
00
ENDCHAR
STARTCHAR nouse_m
ENCODING 15
SWIDTH 96 0
DWIDTH 16 0
BBX 1 1 0 0
BITMAP
00
ENDCHAR
STARTCHAR ptr
ENCODING 16
SWIDTH 96 0
DWIDTH 16 0
BBX 16 15 -1 -14
BITMAP
0000
4000
6000
7000
7800
7c00
7e00
7800
4c00
0c00
0600
0600
0300
0300
0180
ENDCHAR
STARTCHAR ptr_m
ENCODING 17
SWIDTH 96 0
DWIDTH 16 0
BBX 16 16 -1 -15
BITMAP
c000
e000
f000
f800
fc00
fe00
ff00
ff80
fe00
df00
9f00
0f80
0f80
07c0
07c0
03c0
ENDCHAR
STARTCHAR beye
ENCODING 18
SWIDTH 96 0
DWIDTH 16 0
BBX 16 15 -8 -8
BITMAP
0000
03c0
0c30
1008
2004
2004
4002
4182
4182
4002
2004
2004
1008
0c30
03c0
ENDCHAR
STARTCHAR beye_m
ENCODING 19
SWIDTH 96 0
DWIDTH 16 0
BBX 16 16 -8 -9
BITMAP
03c0
0ff0
1ff8
3c3c
700e
700e
e187
e3c7
e3c7
e187
700e
700e
3c3c
1ff8
0ff0
03c0
ENDCHAR
STARTCHAR rtarr
ENCODING 20
SWIDTH 96 0
DWIDTH 16 0
BBX 16 12 -15 -6
BITMAP
0000
0020
0030
0038
003c
7ffe
7fff
7ffe
003c
0038
0030
0020
ENDCHAR
STARTCHAR rtarr_m
ENCODING 21
SWIDTH 96 0
DWIDTH 16 0
BBX 16 13 -15 -7
BITMAP
0060
0070
0078
007c
fffe
ffff
ffff
ffff
fffe
007c
0078
0070
0060
ENDCHAR
STARTCHAR xhair
ENCODING 22
SWIDTH 96 0
DWIDTH 16 0
BBX 16 15 -8 -8
BITMAP
0000
0180
0180
0180
0180
0180
0180
7e7e
7e7e
0180
0180
0180
0180
0180
0180
ENDCHAR
STARTCHAR xhair_m
ENCODING 23
SWIDTH 96 0
DWIDTH 16 0
BBX 16 16 -8 -9
BITMAP
03c0
03c0
03c0
03c0
03c0
03c0
ffff
fe7f
fe7f
ffff
03c0
03c0
03c0
03c0
03c0
03c0
ENDCHAR
STARTCHAR xcurs
ENCODING 24
SWIDTH 96 0
DWIDTH 16 0
BBX 16 15 -7 -7
BITMAP
0000
0000
600c
701c
3838
1c70
0ee0
07c0
0280
07c0
0ee0
1c70
3838
701c
600c
ENDCHAR
STARTCHAR xcurs_m
ENCODING 25
SWIDTH 96 0
DWIDTH 16 0
BBX 16 16 -7 -8
BITMAP
0000
600c
f01e
f83e
7c7c
3ef8
1ff0
0fe0
07c0
0fe0
1ff0
3ef8
7c7c
f83e
f01e
600c
ENDCHAR
STARTCHAR hourg
ENCODING 26
SWIDTH 96 0
DWIDTH 16 0
BBX 16 16 -8 -8
BITMAP
7ffe
4002
200c
1a38
0ff0
07e0
03c0
0180
0180
0240
0520
0810
1108
23c4
47e2
7ffe
ENDCHAR
STARTCHAR hourg_m
ENCODING 27
SWIDTH 96 0
DWIDTH 16 0
BBX 16 16 -8 -8
BITMAP
7ffe
7ffe
3ffc
1ff8
0ff0
07e0
03c0
0180
0180
03c0
07e0
0ff0
1ff8
3ffc
7ffe
7ffe
ENDCHAR
STARTCHAR doc
ENCODING 28
SWIDTH 96 0
DWIDTH 64 0
BBX 64 37 -17 -13
BITMAP
0000000000000000
0000000000000000
0000000000000000
0000000000000000
0000000000000000
07fffe0000000000
0400030000000000
0400028000000000
0400024000000000
0400022000000000
0400021000000000
0400020800000000
040003fc00000000
0400000c00000000
0400000c00000000
0400000c00000000
0400000c00000000
0400000c00000000
0400000c00000000
0400000c00000000
0400000c00000000
0400000c00000000
0400000c00000000
0400000c00000000
0400000c00000000
0400000c00000000
0400000c00000000
0400000c00000000
0400000c00000000
0400000c00000000
0400000c00000000
0400000c00000000
0400000c00000000
0400000c00000000
0400000c00000000
07fffffc00000000
03fffffc00000000
ENDCHAR
STARTCHAR doc_m
ENCODING 29
SWIDTH 96 0
DWIDTH 64 0
BBX 64 38 -17 -14
BITMAP
0000000000000000
0000000000000000
0000000000000000
0000000000000000
0ffffe0000000000
0fffff0000000000
0fffff8000000000
0e0007c000000000
0e0007e000000000
0e00077000000000
0e00073800000000
0e0007fc00000000
0e0007fe00000000
0e0007fe00000000
0e00001e00000000
0e00001e00000000
0e00001e00000000
0e00001e00000000
0e00001e00000000
0e00001e00000000
0e00001e00000000
0e00001e00000000
0e00001e00000000
0e00001e00000000
0e00001e00000000
0e00001e00000000
0e00001e00000000
0e00001e00000000
0e00001e00000000
0e00001e00000000
0e00001e00000000
0e00001e00000000
0e00001e00000000
0e00001e00000000
0ffffffe00000000
0ffffffe00000000
0ffffffe00000000
07fffffe00000000
ENDCHAR
STARTCHAR docstack
ENCODING 30
SWIDTH 96 0
DWIDTH 64 0
BBX 64 37 -17 -13
BITMAP
0000000000000000
7fffc00000000000
4000200000000000
5ffff00000000000
5000080000000000
57fffe0000000000
5400030000000000
5400028000000000
5400024000000000
5400022000000000
5400021000000000
5400020800000000
540003fc00000000
5400000c00000000
5400000c00000000
5400000c00000000
5400000c00000000
5400000c00000000
5400000c00000000
5400000c00000000
5400000c00000000
5400000c00000000
5400000c00000000
5400000c00000000
5400000c00000000
5400000c00000000
5400000c00000000
5400000c00000000
5400000c00000000
5400000c00000000
3400000c00000000
1400000c00000000
1400000c00000000
0c00000c00000000
0400000c00000000
07fffffc00000000
03fffffc00000000
ENDCHAR
STARTCHAR docstack_m
ENCODING 31
SWIDTH 96 0
DWIDTH 64 0
BBX 64 38 -17 -14
BITMAP
ffffc00000000000
ffffe00000000000
fffff00000000000
fffff80000000000
fffffe0000000000
ffffff0000000000
ffffff8000000000
fe0007c000000000
fe0007e000000000
fe00077000000000
fe00073800000000
fe0007fc00000000
fe0007fe00000000
fe0007fe00000000
fe00001e00000000
fe00001e00000000
fe00001e00000000
fe00001e00000000
fe00001e00000000
fe00001e00000000
fe00001e00000000
fe00001e00000000
fe00001e00000000
fe00001e00000000
fe00001e00000000
fe00001e00000000
fe00001e00000000
fe00001e00000000
fe00001e00000000
fe00001e00000000
fe00001e00000000
7e00001e00000000
3e00001e00000000
3e00001e00000000
1ffffffe00000000
0ffffffe00000000
0ffffffe00000000
07fffffe00000000
ENDCHAR
STARTCHAR drop
ENCODING 32
SWIDTH 96 0
DWIDTH 32 0
BBX 32 17 -9 -8
BITMAP
00000000
00000000
01f00000
07fc0000
0ffe0000
1e0f0000
1c070000
38e38000
39f38000
39f38000
39f38000
38e38000
1c070000
1e0f0000
0ffe0000
07fc0000
01f00000
ENDCHAR
STARTCHAR drop_m
ENCODING 33
SWIDTH 96 0
DWIDTH 32 0
BBX 32 19 -9 -10
BITMAP
00000000
03f80000
0ffe0000
1fff0000
3fff8000
3e0f8000
7ce7c000
79f3c000
7bfbc000
7bfbc000
7bfbc000
79f3c000
7ce7c000
3e0f8000
3fff8000
1fff0000
0ffe0000
03f80000
00000000
ENDCHAR
STARTCHAR drop_stem
ENCODING 34
SWIDTH 96 0
DWIDTH 32 0
BBX 32 20 -9 -11
BITMAP
00000000
00000000
01f00000
07fc0000
0ffe0000
1e0f0000
1c070000
38e38000
39f38000
39f38000
39f38000
38e38000
1c070000
1e0f0000
0fff0000
07ff8000
01f1c000
0000e000
00007000
00002000
ENDCHAR
STARTCHAR drop_stem_m
ENCODING 35
SWIDTH 96 0
DWIDTH 32 0
BBX 32 21 -9 -12
BITMAP
00000000
03f80000
0ffe0000
1fff0000
3fff8000
3fff8000
7fffc000
7fffc000
7fffc000
7fffc000
7fffc000
7fffc000
7fffc000
3fff8000
3fff8000
1fffc000
0fffe000
03f9f000
0000f800
00007000
00002000
ENDCHAR
STARTCHAR dupe32
ENCODING 36
SWIDTH 96 0
DWIDTH 32 0
BBX 32 28 -9 -19
BITMAP
00000000
00000000
00000000
00000000
00000000
00000000
00000000
00000000
00000000
00600000
00780000
003e0000
003f8000
001fe000
001ff800
000ff800
000fc000
0007e000
00077000
00033800
00031fc0
00000fd0
00000fd0
00000fd0
00000fd0
00000fd0
00000010
000007f0
ENDCHAR
STARTCHAR dupe32_m
ENCODING 37
SWIDTH 96 0
DWIDTH 32 0
BBX 32 29 -9 -20
BITMAP
00000000
00000000
00000000
00000000
00000000
00000000
00000000
00000000
00f00000
00fc0000
00ff0000
00ffc000
007ff000
007ffc00
003ffc00
003ffc00
001ffc00
001ff000
000ff800
000fffe0
0007bff8
00079ff8
00001ff8
00001ff8
00001ff8
00001ff8
00001ff8
00000ff8
00000ff8
ENDCHAR
STARTCHAR dupe_box
ENCODING 38
SWIDTH 96 0
DWIDTH 16 0
BBX 16 9 -1 -8
BITMAP
0000
7e00
7e80
7e80
7e80
7e80
7e80
0080
3f80
ENDCHAR
STARTCHAR dupe_box_m
ENCODING 39
SWIDTH 96 0
DWIDTH 16 0
BBX 16 10 -1 -9
BITMAP
ff00
ffc0
ffc0
ffc0
ffc0
ffc0
ffc0
ffc0
7fc0
7fc0
ENDCHAR
STARTCHAR dupedoc
ENCODING 40
SWIDTH 96 0
DWIDTH 64 0
BBX 64 43 -17 -19
BITMAP
0000000000000000
0000000000000000
0000000000000000
0000000000000000
0000000000000000
07fffe0000000000
0400030000000000
0400028000000000
0400024000000000
0400022000000000
0400021000000000
0400020800000000
040003fc00000000
0400000c00000000
0400000c00000000
0400000c00000000
0400000c00000000
0400000c00000000
0400000c00000000
0400000c00000000
0400000c00000000
0400000c00000000
0400000c00000000
0400000c00000000
0400000c00000000
0400000c00000000
0400000c00000000
0400000c00000000
0400000c00000000
0400000c00000000
0400000c00000000
0400000c00000000
0400000c00000000
0400000c00000000
0400000c00000000
07ffffffc0000000
03ffffffd0000000
0000000fd0000000
0000000fd0000000
0000000fd0000000
0000000fd0000000
0000000010000000
00000007f0000000
ENDCHAR
STARTCHAR dupedoc_m
ENCODING 41
SWIDTH 96 0
DWIDTH 64 0
BBX 64 44 -17 -20
BITMAP
0000000000000000
0000000000000000
0000000000000000
0000000000000000
0ffffe0000000000
0fffff0000000000
0fffff8000000000
0e0007c000000000
0e0007e000000000
0e00077000000000
0e00073800000000
0e0007fc00000000
0e0007fe00000000
0e0007fe00000000
0e00001e00000000
0e00001e00000000
0e00001e00000000
0e00001e00000000
0e00001e00000000
0e00001e00000000
0e00001e00000000
0e00001e00000000
0e00001e00000000
0e00001e00000000
0e00001e00000000
0e00001e00000000
0e00001e00000000
0e00001e00000000
0e00001e00000000
0e00001e00000000
0e00001e00000000
0e00001e00000000
0e00001e00000000
0e00001e00000000
0fffffffe0000000
0ffffffff8000000
0ffffffff8000000
07fffffff8000000
0000001ff8000000
0000001ff8000000
0000001ff8000000
0000001ff8000000
0000000ff8000000
0000000ff8000000
ENDCHAR
STARTCHAR dupedoc_drag
ENCODING 42
SWIDTH 96 0
DWIDTH 64 0
BBX 64 43 -17 -19
BITMAP
0000000000000000
0000000000000000
0000000000000000
0000000000000000
0000000000000000
07fffe0000000000
0400030000000000
0400028000000000
0400024000000000
0400022000000000
0400021000000000
0400020800000000
040003fc00000000
0400000c00000000
0400000c00000000
0400000c00000000
0400000c00000000
0400000c00000000
0400000c00000000
0400000c00000000
0400000c00000000
0400000c00000000
0400000c00000000
0400000c00000000
0400600c00000000
0400780c00000000
04003e0c00000000
04003f8c00000000
04001fec00000000
04001fec00000000
04000f8c00000000
04000fcc00000000
040006ec00000000
0400067c00000000
0400003c00000000
07ffffffc0000000
03ffffffd0000000
0000000fd0000000
0000000fd0000000
0000000fd0000000
0000000fd0000000
0000000010000000
00000007f0000000
ENDCHAR
STARTCHAR dupedoc_drag_m
ENCODING 43
SWIDTH 96 0
DWIDTH 64 0
BBX 64 44 -17 -20
BITMAP
0000000000000000
0000000000000000
0000000000000000
0000000000000000
0ffffe0000000000
0fffff0000000000
0fffff8000000000
0e0007c000000000
0e0007e000000000
0e00077000000000
0e00073800000000
0e0007fc00000000
0e0007fe00000000
0e0007fe00000000
0e00001e00000000
0e00001e00000000
0e00001e00000000
0e00001e00000000
0e00001e00000000
0e00001e00000000
0e00001e00000000
0e00001e00000000
0e00001e00000000
0e00f01e00000000
0e00fc1e00000000
0e00ff1e00000000
0e00ffde00000000
0e007ffe00000000
0e007ffe00000000
0e003ffe00000000
0e003ffe00000000
0e001ffe00000000
0e001ffe00000000
0e000ffe00000000
0fffffffe0000000
0ffffffff8000000
0ffffffff8000000
07fffffff8000000
0000001ff8000000
0000001ff8000000
0000001ff8000000
0000001ff8000000
0000000ff8000000
0000000ff8000000
ENDCHAR
STARTCHAR dupedoc_drop
ENCODING 44
SWIDTH 96 0
DWIDTH 64 0
BBX 64 43 -17 -19
BITMAP
0000000000000000
0000000000000000
0000000000000000
0000000000000000
0000000000000000
07fffe0000000000
0400030000000000
0400028000000000
0400024000000000
0400022000000000
0400021000000000
0400020800000000
040003fc00000000
0400000c00000000
0400000c00000000
0400000c00000000
0400000c00000000
0401f00c00000000
0407fc0c00000000
040ffe0c00000000
041e0f0c00000000
041c070c00000000
0438e38c00000000
0439f38c00000000
0439f38c00000000
0439f38c00000000
0438e38c00000000
041c070c00000000
041e0f0c00000000
040ffe0c00000000
0407fc0c00000000
0401f00c00000000
0400000c00000000
0400000c00000000
0400000c00000000
07ffffffc0000000
03ffffffd0000000
0000000fd0000000
0000000fd0000000
0000000fd0000000
0000000fd0000000
0000000010000000
00000007f0000000
ENDCHAR
STARTCHAR dupedoc_drop_m
ENCODING 45
SWIDTH 96 0
DWIDTH 64 0
BBX 64 44 -17 -20
BITMAP
0000000000000000
0000000000000000
0000000000000000
0000000000000000
0ffffe0000000000
0fffff0000000000
0fffff8000000000
0e0007c000000000
0e0007e000000000
0e00077000000000
0e00073800000000
0e0007fc00000000
0e0007fe00000000
0e0007fe00000000
0e00001e00000000
0e00001e00000000
0e03f81e00000000
0e0ffe1e00000000
0e1fff1e00000000
0e3fff9e00000000
0e3e0f9e00000000
0e7ce7de00000000
0e79f3de00000000
0e7bfbde00000000
0e7bfbde00000000
0e7bfbde00000000
0e79f3de00000000
0e7ce7de00000000
0e3e0f9e00000000
0e3fff9e00000000
0e1fff1e00000000
0e0ffe1e00000000
0e03f81e00000000
0e00001e00000000
0fffffffe0000000
0ffffffff8000000
0ffffffff8000000
07fffffff8000000
0000001ff8000000
0000001ff8000000
0000001ff8000000
0000001ff8000000
0000000ff8000000
0000000ff8000000
ENDCHAR
STARTCHAR dupedoc_nodrop
ENCODING 46
SWIDTH 96 0
DWIDTH 64 0
BBX 64 43 -17 -19
BITMAP
0000000000000000
0000000000000000
0000000000000000
0000000000000000
0000000000000000
07fffe0000000000
0400030000000000
0400028000000000
0400024000000000
0400022000000000
0400021000000000
0400020800000000
040003fc00000000
0400000c00000000
0400000c00000000
0400000c00000000
0403f00c00000000
040ffc0c00000000
041ffe0c00000000
043e1f0c00000000
04383f0c00000000
04787f8c00000000
0470fb8c00000000
0471f38c00000000
0473e38c00000000
0477c38c00000000
047f878c00000000
043f070c00000000
043e1f0c00000000
041ffe0c00000000
040ffc0c00000000
0403f00c00000000
0400000c00000000
0400000c00000000
0400000c00000000
07ffffffc0000000
03ffffffd0000000
0000000fd0000000
0000000fd0000000
0000000fd0000000
0000000fd0000000
0000000010000000
00000007f0000000
ENDCHAR
STARTCHAR dupedoc_nodrop_m
ENCODING 47
SWIDTH 96 0
DWIDTH 64 0
BBX 64 44 -17 -20
BITMAP
0000000000000000
0000000000000000
0000000000000000
0000000000000000
0ffffe0000000000
0fffff0000000000
0fffff8000000000
0e0007c000000000
0e0007e000000000
0e00077000000000
0e00073800000000
0e0007fc00000000
0e0007fe00000000
0e0007fe00000000
0e00001e00000000
0e03f01e00000000
0e0ffc1e00000000
0e1ffe1e00000000
0e3fff1e00000000
0e7fff9e00000000
0e7e7f9e00000000
0efcffde00000000
0ef9ffde00000000
0efbffde00000000
0efff7de00000000
0effe7de00000000
0effcfde00000000
0e7f9f9e00000000
0e7fff9e00000000
0e3fff1e00000000
0e1ffe1e00000000
0e0ffc1e00000000
0e03f01e00000000
0e00001e00000000
0fffffffe0000000
0ffffffff8000000
0ffffffff8000000
07fffffff8000000
0000001ff8000000
0000001ff8000000
0000001ff8000000
0000001ff8000000
0000000ff8000000
0000000ff8000000
ENDCHAR
STARTCHAR dupestack
ENCODING 48
SWIDTH 96 0
DWIDTH 64 0
BBX 64 43 -17 -19
BITMAP
0000000000000000
7fffc00000000000
4000200000000000
5ffff00000000000
5000080000000000
57fffe0000000000
5400030000000000
5400028000000000
5400024000000000
5400022000000000
5400021000000000
5400020800000000
540003fc00000000
5400000c00000000
5400000c00000000
5400000c00000000
5400000c00000000
5400000c00000000
5400000c00000000
5400000c00000000
5400000c00000000
5400000c00000000
5400000c00000000
5400000c00000000
5400000c00000000
5400000c00000000
5400000c00000000
5400000c00000000
5400000c00000000
5400000c00000000
3400000c00000000
1400000c00000000
1400000c00000000
0c00000c00000000
0400000c00000000
07ffffffc0000000
03ffffffd0000000
0000000fd0000000
0000000fd0000000
0000000fd0000000
0000000fd0000000
0000000010000000
00000007f0000000
ENDCHAR
STARTCHAR dupestack_m
ENCODING 49
SWIDTH 96 0
DWIDTH 64 0
BBX 64 44 -17 -20
BITMAP
ffffc00000000000
ffffe00000000000
fffff00000000000
fffff80000000000
fffffe0000000000
ffffff0000000000
ffffff8000000000
fe0007c000000000
fe0007e000000000
fe00077000000000
fe00073800000000
fe0007fc00000000
fe0007fe00000000
fe0007fe00000000
fe00001e00000000
fe00001e00000000
fe00001e00000000
fe00001e00000000
fe00001e00000000
fe00001e00000000
fe00001e00000000
fe00001e00000000
fe00001e00000000
fe00001e00000000
fe00001e00000000
fe00001e00000000
fe00001e00000000
fe00001e00000000
fe00001e00000000
fe00001e00000000
fe00001e00000000
7e00001e00000000
3e00001e00000000
3e00001e00000000
1fffffffe0000000
0ffffffff8000000
0ffffffff8000000
07fffffff8000000
0000001ff8000000
0000001ff8000000
0000001ff8000000
0000001ff8000000
0000000ff8000000
0000000ff8000000
ENDCHAR
STARTCHAR dupestack_drag
ENCODING 50
SWIDTH 96 0
DWIDTH 64 0
BBX 64 43 -17 -19
BITMAP
0000000000000000
7fffc00000000000
4000200000000000
5ffff00000000000
5000080000000000
57fffe0000000000
5400030000000000
5400028000000000
5400024000000000
5400022000000000
5400021000000000
5400020800000000
540003fc00000000
5400000c00000000
5400000c00000000
5400000c00000000
5400000c00000000
5400000c00000000
5400000c00000000
5400000c00000000
5400000c00000000
5400000c00000000
5400000c00000000
5400000c00000000
5400600c00000000
5400780c00000000
54003e0c00000000
54003f8c00000000
54001fec00000000
54001fec00000000
34000f8c00000000
14000fcc00000000
140006ec00000000
0c00067c00000000
0400003c00000000
07ffffffc0000000
03ffffffd0000000
0000000fd0000000
0000000fd0000000
0000000fd0000000
0000000fd0000000
0000000010000000
00000007f0000000
ENDCHAR
STARTCHAR dupestack_drag_m
ENCODING 51
SWIDTH 96 0
DWIDTH 64 0
BBX 64 44 -17 -20
BITMAP
ffffc00000000000
ffffe00000000000
fffff00000000000
fffff80000000000
fffffe0000000000
ffffff0000000000
ffffff8000000000
fe0007c000000000
fe0007e000000000
fe00077000000000
fe00073800000000
fe0007fc00000000
fe0007fe00000000
fe0007fe00000000
fe00001e00000000
fe00001e00000000
fe00001e00000000
fe00001e00000000
fe00001e00000000
fe00001e00000000
fe00001e00000000
fe00001e00000000
fe00001e00000000
fe00f01e00000000
fe00fc1e00000000
fe00ff1e00000000
fe00ffde00000000
fe007ffe00000000
fe007ffe00000000
fe003ffe00000000
fe003ffe00000000
7e001ffe00000000
3e001ffe00000000
3e000ffe00000000
1fffffffe0000000
0ffffffff8000000
0ffffffff8000000
07fffffff8000000
0000001ff8000000
0000001ff8000000
0000001ff8000000
0000001ff8000000
0000000ff8000000
0000000ff8000000
ENDCHAR
STARTCHAR dupestack_drop
ENCODING 52
SWIDTH 96 0
DWIDTH 64 0
BBX 64 43 -17 -19
BITMAP
0000000000000000
7fffc00000000000
4000200000000000
5ffff00000000000
5000080000000000
57fffe0000000000
5400030000000000
5400028000000000
5400024000000000
5400022000000000
5400021000000000
5400020800000000
540003fc00000000
5400000c00000000
5400000c00000000
5400000c00000000
5400000c00000000
5401f00c00000000
5407fc0c00000000
540ffe0c00000000
541e0f0c00000000
541c070c00000000
5438e38c00000000
5439f38c00000000
5439f38c00000000
5439f38c00000000
5438e38c00000000
541c070c00000000
541e0f0c00000000
540ffe0c00000000
3407fc0c00000000
1401f00c00000000
1400000c00000000
0c00000c00000000
0400000c00000000
07ffffffc0000000
03ffffffd0000000
0000000fd0000000
0000000fd0000000
0000000fd0000000
0000000fd0000000
0000000010000000
00000007f0000000
ENDCHAR
STARTCHAR dupestack_drop_m
ENCODING 53
SWIDTH 96 0
DWIDTH 64 0
BBX 64 44 -17 -20
BITMAP
ffffc00000000000
ffffe00000000000
fffff00000000000
fffff80000000000
fffffe0000000000
ffffff0000000000
ffffff8000000000
fe0007c000000000
fe0007e000000000
fe00077000000000
fe00073800000000
fe0007fc00000000
fe0007fe00000000
fe0007fe00000000
fe00001e00000000
fe00001e00000000
fe03f81e00000000
fe0ffe1e00000000
fe1fff1e00000000
fe3fff9e00000000
fe3e0f9e00000000
fe7ce7de00000000
fe79f3de00000000
fe7bfbde00000000
fe7bfbde00000000
fe7bfbde00000000
fe79f3de00000000
fe7ce7de00000000
fe3e0f9e00000000
fe3fff9e00000000
fe1fff1e00000000
7e0ffe1e00000000
3e03f81e00000000
3e00001e00000000
1fffffffe0000000
0ffffffff8000000
0ffffffff8000000
07fffffff8000000
0000001ff8000000
0000001ff8000000
0000001ff8000000
0000001ff8000000
0000000ff8000000
0000000ff8000000
ENDCHAR
STARTCHAR dupestack_nodrop
ENCODING 54
SWIDTH 96 0
DWIDTH 64 0
BBX 64 43 -17 -19
BITMAP
0000000000000000
7fffc00000000000
4000200000000000
5ffff00000000000
5000080000000000
57fffe0000000000
5400030000000000
5400028000000000
5400024000000000
5400022000000000
5400021000000000
5400020800000000
540003fc00000000
5400000c00000000
5400000c00000000
5400000c00000000
5403f00c00000000
540ffc0c00000000
541ffe0c00000000
543e1f0c00000000
54383f0c00000000
54787f8c00000000
5470fb8c00000000
5471f38c00000000
5473e38c00000000
5477c38c00000000
547f878c00000000
543f070c00000000
543e1f0c00000000
541ffe0c00000000
340ffc0c00000000
1403f00c00000000
1400000c00000000
0c00000c00000000
0400000c00000000
07ffffffc0000000
03ffffffd0000000
0000000fd0000000
0000000fd0000000
0000000fd0000000
0000000fd0000000
0000000010000000
00000007f0000000
ENDCHAR
STARTCHAR dupestack_nodrop_m
ENCODING 55
SWIDTH 96 0
DWIDTH 64 0
BBX 64 44 -17 -20
BITMAP
ffffc00000000000
ffffe00000000000
fffff00000000000
fffff80000000000
fffffe0000000000
ffffff0000000000
ffffff8000000000
fe0007c000000000
fe0007e000000000
fe00077000000000
fe00073800000000
fe0007fc00000000
fe0007fe00000000
fe0007fe00000000
fe00001e00000000
fe03f01e00000000
fe0ffc1e00000000
fe1ffe1e00000000
fe3fff1e00000000
fe7fff9e00000000
fe7e7f9e00000000
fefcffde00000000
fef9ffde00000000
fefbffde00000000
fefff7de00000000
feffe7de00000000
feffcfde00000000
fe7f9f9e00000000
fe7fff9e00000000
fe3fff1e00000000
fe1ffe1e00000000
7e0ffc1e00000000
3e03f01e00000000
3e00001e00000000
1fffffffe0000000
0ffffffff8000000
0ffffffff8000000
07fffffff8000000
0000001ff8000000
0000001ff8000000
0000001ff8000000
0000001ff8000000
0000000ff8000000
0000000ff8000000
ENDCHAR
STARTCHAR move32
ENCODING 56
SWIDTH 96 0
DWIDTH 32 0
BBX 32 26 -9 -17
BITMAP
00000000
00000000
00000000
00000000
00000000
00000000
00000000
00000000
00000000
00600000
00780000
003e0000
003f8000
001fe000
001ff800
000ff800
000fc000
0007e000
00077000
00033800
00031fc0
00000fc0
00000fc0
00000fc0
00000fc0
00000fc0
ENDCHAR
STARTCHAR move32_m
ENCODING 57
SWIDTH 96 0
DWIDTH 32 0
BBX 32 27 -9 -18
BITMAP
00000000
00000000
00000000
00000000
00000000
00000000
00000000
00000000
00f00000
00fc0000
00ff0000
00ffc000
007ff000
007ffc00
003ffc00
003ffc00
001ffc00
001ff000
000ff800
000fffe0
0007bfe0
00079fe0
00001fe0
00001fe0
00001fe0
00001fe0
00001fe0
ENDCHAR
STARTCHAR move_box
ENCODING 58
SWIDTH 96 0
DWIDTH 16 0
BBX 16 7 -1 -6
BITMAP
0000
7e00
7e00
7e00
7e00
7e00
7e00
ENDCHAR
STARTCHAR move_box_m
ENCODING 59
SWIDTH 96 0
DWIDTH 16 0
BBX 16 8 -1 -7
BITMAP
ff00
ff00
ff00
ff00
ff00
ff00
ff00
ff00
ENDCHAR
STARTCHAR movedoc
ENCODING 60
SWIDTH 96 0
DWIDTH 64 0
BBX 64 41 -17 -17
BITMAP
0000000000000000
0000000000000000
0000000000000000
0000000000000000
0000000000000000
07fffe0000000000
0400030000000000
0400028000000000
0400024000000000
0400022000000000
0400021000000000
0400020800000000
040003fc00000000
0400000c00000000
0400000c00000000
0400000c00000000
0400000c00000000
0400000c00000000
0400000c00000000
0400000c00000000
0400000c00000000
0400000c00000000
0400000c00000000
0400000c00000000
0400000c00000000
0400000c00000000
0400000c00000000
0400000c00000000
0400000c00000000
0400000c00000000
0400000c00000000
0400000c00000000
0400000c00000000
0400000c00000000
0400000c00000000
07ffffffc0000000
03ffffffc0000000
0000000fc0000000
0000000fc0000000
0000000fc0000000
0000000fc0000000
ENDCHAR
STARTCHAR movedoc_m
ENCODING 61
SWIDTH 96 0
DWIDTH 64 0
BBX 64 42 -17 -18
BITMAP
0000000000000000
0000000000000000
0000000000000000
0000000000000000
0ffffe0000000000
0fffff0000000000
0fffff8000000000
0e0007c000000000
0e0007e000000000
0e00077000000000
0e00073800000000
0e0007fc00000000
0e0007fe00000000
0e0007fe00000000
0e00001e00000000
0e00001e00000000
0e00001e00000000
0e00001e00000000
0e00001e00000000
0e00001e00000000
0e00001e00000000
0e00001e00000000
0e00001e00000000
0e00001e00000000
0e00001e00000000
0e00001e00000000
0e00001e00000000
0e00001e00000000
0e00001e00000000
0e00001e00000000
0e00001e00000000
0e00001e00000000
0e00001e00000000
0e00001e00000000
0fffffffe0000000
0fffffffe0000000
0fffffffe0000000
07ffffffe0000000
0000001fe0000000
0000001fe0000000
0000001fe0000000
0000001fe0000000
ENDCHAR
STARTCHAR movedoc_drag
ENCODING 62
SWIDTH 96 0
DWIDTH 64 0
BBX 64 41 -17 -17
BITMAP
0000000000000000
0000000000000000
0000000000000000
0000000000000000
0000000000000000
07fffe0000000000
0400030000000000
0400028000000000
0400024000000000
0400022000000000
0400021000000000
0400020800000000
040003fc00000000
0400000c00000000
0400000c00000000
0400000c00000000
0400000c00000000
0400000c00000000
0400000c00000000
0400000c00000000
0400000c00000000
0400000c00000000
0400000c00000000
0400000c00000000
0400600c00000000
0400780c00000000
04003e0c00000000
04003f8c00000000
04001fec00000000
04001fec00000000
04000f8c00000000
04000fcc00000000
040006ec00000000
0400067c00000000
0400003c00000000
07ffffffc0000000
03ffffffc0000000
0000000fc0000000
0000000fc0000000
0000000fc0000000
0000000fc0000000
ENDCHAR
STARTCHAR movedoc_drag_m
ENCODING 63
SWIDTH 96 0
DWIDTH 64 0
BBX 64 42 -17 -18
BITMAP
0000000000000000
0000000000000000
0000000000000000
0000000000000000
0ffffe0000000000
0fffff0000000000
0fffff8000000000
0e0007c000000000
0e0007e000000000
0e00077000000000
0e00073800000000
0e0007fc00000000
0e0007fe00000000
0e0007fe00000000
0e00001e00000000
0e00001e00000000
0e00001e00000000
0e00001e00000000
0e00001e00000000
0e00001e00000000
0e00001e00000000
0e00001e00000000
0e00001e00000000
0e00f01e00000000
0e00fc1e00000000
0e00ff1e00000000
0e00ffde00000000
0e007ffe00000000
0e007ffe00000000
0e003ffe00000000
0e003ffe00000000
0e001ffe00000000
0e001ffe00000000
0e000ffe00000000
0fffffffe0000000
0fffffffe0000000
0fffffffe0000000
07ffffffe0000000
0000001fe0000000
0000001fe0000000
0000001fe0000000
0000001fe0000000
ENDCHAR
STARTCHAR movedoc_drop
ENCODING 64
SWIDTH 96 0
DWIDTH 64 0
BBX 64 41 -17 -17
BITMAP
0000000000000000
0000000000000000
0000000000000000
0000000000000000
0000000000000000
07fffe0000000000
0400030000000000
0400028000000000
0400024000000000
0400022000000000
0400021000000000
0400020800000000
040003fc00000000
0400000c00000000
0400000c00000000
0400000c00000000
0400000c00000000
0401f00c00000000
0407fc0c00000000
040ffe0c00000000
041e0f0c00000000
041c070c00000000
0438e38c00000000
0439f38c00000000
0439f38c00000000
0439f38c00000000
0438e38c00000000
041c070c00000000
041e0f0c00000000
040ffe0c00000000
0407fc0c00000000
0401f00c00000000
0400000c00000000
0400000c00000000
0400000c00000000
07ffffffc0000000
03ffffffc0000000
0000000fc0000000
0000000fc0000000
0000000fc0000000
0000000fc0000000
ENDCHAR
STARTCHAR movedoc_drop_m
ENCODING 65
SWIDTH 96 0
DWIDTH 64 0
BBX 64 42 -17 -18
BITMAP
0000000000000000
0000000000000000
0000000000000000
0000000000000000
0ffffe0000000000
0fffff0000000000
0fffff8000000000
0e0007c000000000
0e0007e000000000
0e00077000000000
0e00073800000000
0e0007fc00000000
0e0007fe00000000
0e0007fe00000000
0e00001e00000000
0e00001e00000000
0e03f81e00000000
0e0ffe1e00000000
0e1fff1e00000000
0e3fff9e00000000
0e3e0f9e00000000
0e7ce7de00000000
0e79f3de00000000
0e7bfbde00000000
0e7bfbde00000000
0e7bfbde00000000
0e79f3de00000000
0e7ce7de00000000
0e3e0f9e00000000
0e3fff9e00000000
0e1fff1e00000000
0e0ffe1e00000000
0e03f81e00000000
0e00001e00000000
0fffffffe0000000
0fffffffe0000000
0fffffffe0000000
07ffffffe0000000
0000001fe0000000
0000001fe0000000
0000001fe0000000
0000001fe0000000
ENDCHAR
STARTCHAR movedoc_nodrop
ENCODING 66
SWIDTH 96 0
DWIDTH 64 0
BBX 64 41 -17 -17
BITMAP
0000000000000000
0000000000000000
0000000000000000
0000000000000000
0000000000000000
07fffe0000000000
0400030000000000
0400028000000000
0400024000000000
0400022000000000
0400021000000000
0400020800000000
040003fc00000000
0400000c00000000
0400000c00000000
0400000c00000000
0403f00c00000000
040ffc0c00000000
041ffe0c00000000
043e1f0c00000000
04383f0c00000000
04787f8c00000000
0470fb8c00000000
0471f38c00000000
0473e38c00000000
0477c38c00000000
047f878c00000000
043f070c00000000
043e1f0c00000000
041ffe0c00000000
040ffc0c00000000
0403f00c00000000
0400000c00000000
0400000c00000000
0400000c00000000
07ffffffc0000000
03ffffffc0000000
0000000fc0000000
0000000fc0000000
0000000fc0000000
0000000fc0000000
ENDCHAR
STARTCHAR movedoc_nodrop_m
ENCODING 67
SWIDTH 96 0
DWIDTH 64 0
BBX 64 42 -17 -18
BITMAP
0000000000000000
0000000000000000
0000000000000000
0000000000000000
0ffffe0000000000
0fffff0000000000
0fffff8000000000
0e0007c000000000
0e0007e000000000
0e00077000000000
0e00073800000000
0e0007fc00000000
0e0007fe00000000
0e0007fe00000000
0e00001e00000000
0e03f01e00000000
0e0ffc1e00000000
0e1ffe1e00000000
0e3fff1e00000000
0e7fff9e00000000
0e7e7f9e00000000
0efcffde00000000
0ef9ffde00000000
0efbffde00000000
0efff7de00000000
0effe7de00000000
0effcfde00000000
0e7f9f9e00000000
0e7fff9e00000000
0e3fff1e00000000
0e1ffe1e00000000
0e0ffc1e00000000
0e03f01e00000000
0e00001e00000000
0fffffffe0000000
0fffffffe0000000
0fffffffe0000000
07ffffffe0000000
0000001fe0000000
0000001fe0000000
0000001fe0000000
0000001fe0000000
ENDCHAR
STARTCHAR movestack
ENCODING 68
SWIDTH 96 0
DWIDTH 64 0
BBX 64 41 -17 -17
BITMAP
0000000000000000
7fffc00000000000
4000200000000000
5ffff00000000000
5000080000000000
57fffe0000000000
5400030000000000
5400028000000000
5400024000000000
5400022000000000
5400021000000000
5400020800000000
540003fc00000000
5400000c00000000
5400000c00000000
5400000c00000000
5400000c00000000
5400000c00000000
5400000c00000000
5400000c00000000
5400000c00000000
5400000c00000000
5400000c00000000
5400000c00000000
5400000c00000000
5400000c00000000
5400000c00000000
5400000c00000000
5400000c00000000
5400000c00000000
3400000c00000000
1400000c00000000
1400000c00000000
0c00000c00000000
0400000c00000000
07ffffffc0000000
03ffffffc0000000
0000000fc0000000
0000000fc0000000
0000000fc0000000
0000000fc0000000
ENDCHAR
STARTCHAR movestack_m
ENCODING 69
SWIDTH 96 0
DWIDTH 64 0
BBX 64 42 -17 -18
BITMAP
ffffe00000000000
fffff00000000000
fffff80000000000
fffffc0000000000
fffffe0000000000
ffffff0000000000
ffffff8000000000
fe0007c000000000
fe0007e000000000
fe00077000000000
fe00073800000000
fe0007fc00000000
fe0007fe00000000
fe0007fe00000000
fe00001e00000000
fe00001e00000000
fe00001e00000000
fe00001e00000000
fe00001e00000000
fe00001e00000000
fe00001e00000000
fe00001e00000000
fe00001e00000000
fe00001e00000000
fe00001e00000000
fe00001e00000000
fe00001e00000000
fe00001e00000000
fe00001e00000000
fe00001e00000000
fe00001e00000000
7e00001e00000000
3e00001e00000000
3e00001e00000000
1fffffffe0000000
0fffffffe0000000
0fffffffe0000000
07ffffffe0000000
0000001fe0000000
0000001fe0000000
0000001fe0000000
0000001fe0000000
ENDCHAR
STARTCHAR movestack_drag
ENCODING 70
SWIDTH 96 0
DWIDTH 64 0
BBX 64 41 -17 -17
BITMAP
0000000000000000
7fffc00000000000
4000200000000000
5ffff00000000000
5000080000000000
57fffe0000000000
5400030000000000
5400028000000000
5400024000000000
5400022000000000
5400021000000000
5400020800000000
540003fc00000000
5400000c00000000
5400000c00000000
5400000c00000000
5400000c00000000
5400000c00000000
5400000c00000000
5400000c00000000
5400000c00000000
5400000c00000000
5400000c00000000
5400000c00000000
5400600c00000000
5400780c00000000
54003e0c00000000
54003f8c00000000
54001fec00000000
54001fec00000000
34000f8c00000000
14000fcc00000000
140006ec00000000
0c00067c00000000
0400003c00000000
07ffffffc0000000
03ffffffc0000000
0000000fc0000000
0000000fc0000000
0000000fc0000000
0000000fc0000000
ENDCHAR
STARTCHAR movestack_drag_m
ENCODING 71
SWIDTH 96 0
DWIDTH 64 0
BBX 64 42 -17 -18
BITMAP
ffffe00000000000
fffff00000000000
fffff80000000000
fffffc0000000000
fffffe0000000000
ffffff0000000000
ffffff8000000000
fe0007c000000000
fe0007e000000000
fe00077000000000
fe00073800000000
fe0007fc00000000
fe0007fe00000000
fe0007fe00000000
fe00001e00000000
fe00001e00000000
fe00001e00000000
fe00001e00000000
fe00001e00000000
fe00001e00000000
fe00001e00000000
fe00001e00000000
fe00001e00000000
fe00f01e00000000
fe00fc1e00000000
fe00ff1e00000000
fe00ffde00000000
fe007ffe00000000
fe007ffe00000000
fe003ffe00000000
fe003ffe00000000
7e001ffe00000000
3e001ffe00000000
3e000ffe00000000
1fffffffe0000000
0fffffffe0000000
0fffffffe0000000
07ffffffe0000000
0000001fe0000000
0000001fe0000000
0000001fe0000000
0000001fe0000000
ENDCHAR
STARTCHAR movestack_drop
ENCODING 72
SWIDTH 96 0
DWIDTH 64 0
BBX 64 41 -17 -17
BITMAP
0000000000000000
7fffc00000000000
4000200000000000
5ffff00000000000
5000080000000000
57fffe0000000000
5400030000000000
5400028000000000
5400024000000000
5400022000000000
5400021000000000
5400020800000000
540003fc00000000
5400000c00000000
5400000c00000000
5400000c00000000
5400000c00000000
5401f00c00000000
5407fc0c00000000
540ffe0c00000000
541e0f0c00000000
541c070c00000000
5438e38c00000000
5439f38c00000000
5439f38c00000000
5439f38c00000000
5438e38c00000000
541c070c00000000
541e0f0c00000000
540ffe0c00000000
3407fc0c00000000
1401f00c00000000
1400000c00000000
0c00000c00000000
0400000c00000000
07ffffffc0000000
03ffffffc0000000
0000000fc0000000
0000000fc0000000
0000000fc0000000
0000000fc0000000
ENDCHAR
STARTCHAR movestack_drop_m
ENCODING 73
SWIDTH 96 0
DWIDTH 64 0
BBX 64 42 -17 -18
BITMAP
ffffe00000000000
fffff00000000000
fffff80000000000
fffffc0000000000
fffffe0000000000
ffffff0000000000
ffffff8000000000
fe0007c000000000
fe0007e000000000
fe00077000000000
fe00073800000000
fe0007fc00000000
fe0007fe00000000
fe0007fe00000000
fe00001e00000000
fe00001e00000000
fe03f81e00000000
fe0ffe1e00000000
fe1fff1e00000000
fe3fff9e00000000
fe3e0f9e00000000
fe7ce7de00000000
fe79f3de00000000
fe7bfbde00000000
fe7bfbde00000000
fe7bfbde00000000
fe79f3de00000000
fe7ce7de00000000
fe3e0f9e00000000
fe3fff9e00000000
fe1fff1e00000000
7e0ffe1e00000000
3e03f81e00000000
3e00001e00000000
1fffffffe0000000
0fffffffe0000000
0fffffffe0000000
07ffffffe0000000
0000001fe0000000
0000001fe0000000
0000001fe0000000
0000001fe0000000
ENDCHAR
STARTCHAR movestack_nodrop
ENCODING 74
SWIDTH 96 0
DWIDTH 64 0
BBX 64 41 -17 -17
BITMAP
0000000000000000
7fffc00000000000
4000200000000000
5ffff00000000000
5000080000000000
57fffe0000000000
5400030000000000
5400028000000000
5400024000000000
5400022000000000
5400021000000000
5400020800000000
540003fc00000000
5400000c00000000
5400000c00000000
5400000c00000000
5403f00c00000000
540ffc0c00000000
541ffe0c00000000
543e1f0c00000000
54383f0c00000000
54787f8c00000000
5470fb8c00000000
5471f38c00000000
5473e38c00000000
5477c38c00000000
547f878c00000000
543f070c00000000
543e1f0c00000000
541ffe0c00000000
340ffc0c00000000
1403f00c00000000
1400000c00000000
0c00000c00000000
0400000c00000000
07ffffffc0000000
03ffffffc0000000
0000000fc0000000
0000000fc0000000
0000000fc0000000
0000000fc0000000
ENDCHAR
STARTCHAR movestack_nodrop_m
ENCODING 75
SWIDTH 96 0
DWIDTH 64 0
BBX 64 42 -17 -18
BITMAP
ffffe00000000000
fffff00000000000
fffff80000000000
fffffc0000000000
fffffe0000000000
ffffff0000000000
ffffff8000000000
fe0007c000000000
fe0007e000000000
fe00077000000000
fe00073800000000
fe0007fc00000000
fe0007fe00000000
fe0007fe00000000
fe00001e00000000
fe03f01e00000000
fe0ffc1e00000000
fe1ffe1e00000000
fe3fff1e00000000
fe7fff9e00000000
fe7e7f9e00000000
fefcffde00000000
fef9ffde00000000
fefbffde00000000
fefff7de00000000
feffe7de00000000
feffcfde00000000
fe7f9f9e00000000
fe7fff9e00000000
fe3fff1e00000000
fe1ffe1e00000000
7e0ffc1e00000000
3e03f01e00000000
3e00001e00000000
1fffffffe0000000
0fffffffe0000000
0fffffffe0000000
07ffffffe0000000
0000001fe0000000
0000001fe0000000
0000001fe0000000
0000001fe0000000
ENDCHAR
STARTCHAR nodrop
ENCODING 76
SWIDTH 96 0
DWIDTH 32 0
BBX 32 17 -9 -8
BITMAP
00000000
03f00000
0ffc0000
1ffe0000
3e1f0000
383f0000
787f8000
70fb8000
71f38000
73e38000
77c38000
7f878000
3f070000
3e1f0000
1ffe0000
0ffc0000
03f00000
ENDCHAR
STARTCHAR nodrop_m
ENCODING 77
SWIDTH 96 0
DWIDTH 32 0
BBX 32 18 -9 -9
BITMAP
03f00000
0ffc0000
1ffe0000
3fff0000
7fff8000
7e7f8000
fcffc000
f9ffc000
fbffc000
fff7c000
ffe7c000
ffcfc000
7f9f8000
7fff8000
3fff0000
1ffe0000
0ffc0000
03f00000
ENDCHAR
STARTCHAR nodrop_stem
ENCODING 78
SWIDTH 96 0
DWIDTH 32 0
BBX 32 20 -9 -11
BITMAP
00000000
03f00000
0ffc0000
1ffe0000
3e1f0000
383f0000
787f8000
70fb8000
71f38000
73e38000
77c38000
7f878000
3f070000
3e1f0000
1fff0000
0fff8000
03f1c000
0000e000
00004000
00000000
ENDCHAR
STARTCHAR nodrop_stem_m
ENCODING 79
SWIDTH 96 0
DWIDTH 32 0
BBX 32 21 -9 -12
BITMAP
03f00000
0ffc0000
1ffe0000
3fff0000
7fff8000
7e7f8000
fcffc000
f9ffc000
fbffc000
fff7c000
ffe7c000
ffcfc000
7f9f8000
7fff8000
3fff8000
1fffc000
0fffe000
03f1f000
0000f800
00007000
00002000
ENDCHAR
STARTCHAR textdupe_box
ENCODING 80
SWIDTH 96 0
DWIDTH 64 0
BBX 64 35 -9 -26
BITMAP
0000000000000000
0000000000000000
0000000000000000
0000000000000000
0000000000000000
0000000000000000
0000000000000000
0000000000000000
0000000000000000
0000000000000000
0000000000000000
0000000000000000
0000000000000000
0000000000000000
0000000000000000
0000000000000000
0000000000000000
000007fffffffff8
0000080000000008
000010000000000a
000020000000080a
000040000000040a
0000400000000a0a
000040000000050a
0000400000000a8a
000040000000050a
0000400000000a0a
000040000000040a
000040000000080a
000040000000000a
000040000000000a
000040000000000a
00007ffffffffffa
0000000000000002
00001ffffffffffe
ENDCHAR
STARTCHAR textdupe_box_m
ENCODING 81
SWIDTH 96 0
DWIDTH 64 0
BBX 64 36 -9 -27
BITMAP
0000000000000000
0000000000000000
0000000000000000
0000000000000000
0000000000000000
0000000000000000
0000000000000000
0000000000000000
0000000000000000
0000000000000000
0000000000000000
0000000000000000
0000000000000000
0000000000000000
0000000000000000
0000000000000000
000007fffffffffc
00000ffffffffffc
00001fffffffffff
00003fffffffffff
00007fffffffffff
0000ffffffffffff
0000ffffffffffff
0000ffffffffffff
0000ffffffffffff
0000ffffffffffff
0000ffffffffffff
0000ffffffffffff
0000ffffffffffff
0000ffffffffffff
0000ffffffffffff
0000ffffffffffff
0000ffffffffffff
0000ffffffffffff
00003fffffffffff
00003fffffffffff
ENDCHAR
STARTCHAR textdupe_drag
ENCODING 82
SWIDTH 96 0
DWIDTH 64 0
BBX 64 35 -9 -26
BITMAP
0000000000000000
0000000000000000
0000000000000000
0000000000000000
0000000000000000
0000000000000000
0000000000000000
0000000000000000
0000000000000000
0060000000000000
0078000000000000
003e000000000000
003f800000000000
001fe00000000000
001fe00000000000
000f800000000000
000fc00000000000
0006e7fffffffff8
0006780000000008
000030000000000a
000020000000080a
000040000000040a
0000400000000a0a
000040000000050a
0000400000000a8a
000040000000050a
0000400000000a0a
000040000000040a
000040000000080a
000040000000000a
000040000000000a
000040000000000a
00007ffffffffffa
0000000000000002
00001ffffffffffe
ENDCHAR
STARTCHAR textdupe_drag_m
ENCODING 83
SWIDTH 96 0
DWIDTH 64 0
BBX 64 36 -9 -27
BITMAP
0000000000000000
0000000000000000
0000000000000000
0000000000000000
0000000000000000
0000000000000000
0000000000000000
0000000000000000
00f0000000000000
00fc000000000000
00ff000000000000
00ffc00000000000
007ff00000000000
007ff00000000000
003ff00000000000
003ff00000000000
001fe7fffffffffc
001ffffffffffffc
000fffffffffffff
000f7fffffffffff
00007fffffffffff
0000ffffffffffff
0000ffffffffffff
0000ffffffffffff
0000ffffffffffff
0000ffffffffffff
0000ffffffffffff
0000ffffffffffff
0000ffffffffffff
0000ffffffffffff
0000ffffffffffff
0000ffffffffffff
0000ffffffffffff
0000ffffffffffff
0000ffffffffffff
00003fffffffffff
ENDCHAR
STARTCHAR textdupe_drop
ENCODING 84
SWIDTH 96 0
DWIDTH 64 0
BBX 64 35 -9 -26
BITMAP
0000000000000000
0000000000000000
01f0000000000000
07fc000000000000
0ffe000000000000
1e0f000000000000
1c07000000000000
38e3800000000000
39f3800000000000
39f3800000000000
39f3800000000000
38e3800000000000
1c07000000000000
1e0f000000000000
0fff000000000000
07ff800000000000
01f1c00000000000
0000e7fffffffff8
0000780000000008
000030000000000a
000020000000080a
000040000000040a
0000400000000a0a
000040000000050a
0000400000000a8a
000040000000050a
0000400000000a0a
000040000000040a
000040000000080a
000040000000000a
000040000000000a
000040000000000a
00007ffffffffffa
0000000000000002
00001ffffffffffe
ENDCHAR
STARTCHAR textdupe_drop_m
ENCODING 85
SWIDTH 96 0
DWIDTH 64 0
BBX 64 36 -9 -27
BITMAP
0000000000000000
03f8000000000000
0ffe000000000000
1fff000000000000
3fff800000000000
3e0f800000000000
7ce7c00000000000
79f3c00000000000
7bfbc00000000000
7bfbc00000000000
7bfbc00000000000
79f3c00000000000
7ce7c00000000000
3e0f800000000000
3fff800000000000
1fffc00000000000
0fffe7fffffffffc
03f9fffffffffffc
0000ffffffffffff
00007fffffffffff
00007fffffffffff
0000ffffffffffff
0000ffffffffffff
0000ffffffffffff
0000ffffffffffff
0000ffffffffffff
0000ffffffffffff
0000ffffffffffff
0000ffffffffffff
0000ffffffffffff
0000ffffffffffff
0000ffffffffffff
0000ffffffffffff
0000ffffffffffff
00003fffffffffff
00003fffffffffff
ENDCHAR
STARTCHAR textdupe_nodrop
ENCODING 86
SWIDTH 96 0
DWIDTH 64 0
BBX 64 35 -9 -26
BITMAP
0000000000000000
03f0000000000000
0ffc000000000000
1ffe000000000000
3e1f000000000000
383f000000000000
787f800000000000
70fb800000000000
71f3800000000000
73e3800000000000
77c3800000000000
7f87800000000000
3f07000000000000
3e1f000000000000
1fff000000000000
0fff800000000000
03f1c00000000000
0000e7fffffffff8
0000780000000008
000030000000000a
000020000000080a
000040000000040a
0000400000000a0a
000040000000050a
0000400000000a8a
000040000000050a
0000400000000a0a
000040000000040a
000040000000080a
000040000000000a
000040000000000a
000040000000000a
00007ffffffffffa
0000000000000002
00001ffffffffffe
ENDCHAR
STARTCHAR textdupe_nodrop_m
ENCODING 87
SWIDTH 96 0
DWIDTH 64 0
BBX 64 36 -9 -27
BITMAP
03f0000000000000
0ffc000000000000
1ffe000000000000
3fff000000000000
7fff800000000000
7e7f800000000000
fcffc00000000000
f9ffc00000000000
fbffc00000000000
fff7c00000000000
ffe7c00000000000
ffcfc00000000000
7f9f800000000000
7fff800000000000
3fff800000000000
1fffc00000000000
0fffe7fffffffffc
03f1fffffffffffc
0000ffffffffffff
00007fffffffffff
00007fffffffffff
0000ffffffffffff
0000ffffffffffff
0000ffffffffffff
0000ffffffffffff
0000ffffffffffff
0000ffffffffffff
0000ffffffffffff
0000ffffffffffff
0000ffffffffffff
0000ffffffffffff
0000ffffffffffff
0000ffffffffffff
0000ffffffffffff
00003fffffffffff
00003fffffffffff
ENDCHAR
STARTCHAR textmove_box
ENCODING 88
SWIDTH 96 0
DWIDTH 64 0
BBX 64 33 -9 -24
BITMAP
0000000000000000
0000000000000000
0000000000000000
0000000000000000
0000000000000000
0000000000000000
0000000000000000
0000000000000000
0000000000000000
0000000000000000
0000000000000000
0000000000000000
0000000000000000
0000000000000000
0000000000000000
0000000000000000
0000000000000000
000007fffffffff8
0000080000000008
0000100000000008
0000200000000808
0000400000000408
0000400000000a08
0000400000000508
0000400000000a88
0000400000000508
0000400000000a08
0000400000000408
0000400000000808
0000400000000008
0000400000000008
0000400000000008
00007ffffffffff8
ENDCHAR
STARTCHAR textmove_box_m
ENCODING 89
SWIDTH 96 0
DWIDTH 64 0
BBX 64 34 -9 -25
BITMAP
0000000000000000
0000000000000000
0000000000000000
0000000000000000
0000000000000000
0000000000000000
0000000000000000
0000000000000000
0000000000000000
0000000000000000
0000000000000000
0000000000000000
0000000000000000
0000000000000000
0000000000000000
0000000000000000
000007fffffffffc
00000ffffffffffc
00001ffffffffffc
00003ffffffffffc
00007ffffffffffc
0000fffffffffffc
0000fffffffffffc
0000fffffffffffc
0000fffffffffffc
0000fffffffffffc
0000fffffffffffc
0000fffffffffffc
0000fffffffffffc
0000fffffffffffc
0000fffffffffffc
0000fffffffffffc
0000fffffffffffc
0000fffffffffffc
ENDCHAR
STARTCHAR textmove_drag
ENCODING 90
SWIDTH 96 0
DWIDTH 64 0
BBX 64 33 -9 -24
BITMAP
0000000000000000
0000000000000000
0000000000000000
0000000000000000
0000000000000000
0000000000000000
0000000000000000
0000000000000000
0000000000000000
0060000000000000
0078000000000000
003e000000000000
003f800000000000
001fe00000000000
001fe00000000000
000f800000000000
000fc00000000000
0006e7fffffffff8
0006780000000008
0000300000000008
0000200000000808
0000400000000408
0000400000000a08
0000400000000508
0000400000000a88
0000400000000508
0000400000000a08
0000400000000408
0000400000000808
0000400000000008
0000400000000008
0000400000000008
00007ffffffffff8
ENDCHAR
STARTCHAR textmove_drag_m
ENCODING 91
SWIDTH 96 0
DWIDTH 64 0
BBX 64 34 -9 -25
BITMAP
0000000000000000
0000000000000000
0000000000000000
0000000000000000
0000000000000000
0000000000000000
0000000000000000
0000000000000000
00f0000000000000
00fc000000000000
00ff000000000000
00ffc00000000000
007ff00000000000
007ff00000000000
003ff00000000000
003ff00000000000
001fe7fffffffffc
001ffffffffffffc
000ffffffffffffc
000f7ffffffffffc
00007ffffffffffc
0000fffffffffffc
0000fffffffffffc
0000fffffffffffc
0000fffffffffffc
0000fffffffffffc
0000fffffffffffc
0000fffffffffffc
0000fffffffffffc
0000fffffffffffc
0000fffffffffffc
0000fffffffffffc
0000fffffffffffc
0000fffffffffffc
ENDCHAR
STARTCHAR textmove_drop
ENCODING 92
SWIDTH 96 0
DWIDTH 64 0
BBX 64 33 -9 -24
BITMAP
0000000000000000
0000000000000000
01f0000000000000
07fc000000000000
0ffe000000000000
1e0f000000000000
1c07000000000000
38e3800000000000
39f3800000000000
39f3800000000000
39f3800000000000
38e3800000000000
1c07000000000000
1e0f000000000000
0fff000000000000
07ff800000000000
01f1c00000000000
0000e7fffffffff8
0000780000000008
0000300000000008
0000200000000808
0000400000000408
0000400000000a08
0000400000000508
0000400000000a88
0000400000000508
0000400000000a08
0000400000000408
0000400000000808
0000400000000008
0000400000000008
0000400000000008
00007ffffffffff8
ENDCHAR
STARTCHAR textmove_drop_m
ENCODING 93
SWIDTH 96 0
DWIDTH 64 0
BBX 64 34 -9 -25
BITMAP
0000000000000000
03f8000000000000
0ffe000000000000
1fff000000000000
3fff800000000000
3e0f800000000000
7ce7c00000000000
79f3c00000000000
7bfbc00000000000
7bfbc00000000000
7bfbc00000000000
79f3c00000000000
7ce7c00000000000
3e0f800000000000
3fff800000000000
1fffc00000000000
0fffe7fffffffffc
03f9fffffffffffc
0000fffffffffffc
00007ffffffffffc
00007ffffffffffc
0000fffffffffffc
0000fffffffffffc
0000fffffffffffc
0000fffffffffffc
0000fffffffffffc
0000fffffffffffc
0000fffffffffffc
0000fffffffffffc
0000fffffffffffc
0000fffffffffffc
0000fffffffffffc
0000fffffffffffc
0000fffffffffffc
ENDCHAR
STARTCHAR textmove_nodrop
ENCODING 94
SWIDTH 96 0
DWIDTH 64 0
BBX 64 33 -9 -24
BITMAP
0000000000000000
03f0000000000000
0ffc000000000000
1ffe000000000000
3e1f000000000000
383f000000000000
787f800000000000
70fb800000000000
71f3800000000000
73e3800000000000
77c3800000000000
7f87800000000000
3f07000000000000
3e1f000000000000
1fff000000000000
0fff800000000000
03f1c00000000000
0000e7fffffffff8
0000780000000008
0000300000000008
0000200000000808
0000400000000408
0000400000000a08
0000400000000508
0000400000000a88
0000400000000508
0000400000000a08
0000400000000408
0000400000000808
0000400000000008
0000400000000008
0000400000000008
00007ffffffffff8
ENDCHAR
STARTCHAR textmove_nodrop_m
ENCODING 95
SWIDTH 96 0
DWIDTH 64 0
BBX 64 34 -9 -25
BITMAP
03f0000000000000
0ffc000000000000
1ffe000000000000
3fff000000000000
7fff800000000000
7e7f800000000000
fcffc00000000000
f9ffc00000000000
fbffc00000000000
fff7c00000000000
ffe7c00000000000
ffcfc00000000000
7f9f800000000000
7fff800000000000
3fff800000000000
1fffc00000000000
0fffe7fffffffffc
03f1fffffffffffc
0000fffffffffffc
00007ffffffffffc
00007ffffffffffc
0000fffffffffffc
0000fffffffffffc
0000fffffffffffc
0000fffffffffffc
0000fffffffffffc
0000fffffffffffc
0000fffffffffffc
0000fffffffffffc
0000fffffffffffc
0000fffffffffffc
0000fffffffffffc
0000fffffffffffc
0000fffffffffffc
ENDCHAR
STARTCHAR textdupe_insert
ENCODING 96
SWIDTH 96 0
DWIDTH 64 0
BBX 64 35 -9 -26
BITMAP
0040000000000000
01f0000000000000
064c000000000000
0842000000000000
1041000000000000
2040800000000000
2040800000000000
4040400000000000
4040400000000000
fe0fe00000000000
4040400000000000
4040400000000000
2040800000000000
2040800000000000
1041000000000000
0843800000000000
064dc00000000000
01f0e7fffffffff8
0040780000000008
000030000000000a
000020000000080a
000040000000040a
0000400000000a0a
000040000000050a
0000400000000a8a
000040000000050a
0000400000000a0a
000040000000040a
000040000000080a
000040000000000a
000040000000000a
000040000000000a
00007ffffffffffa
0000000000000002
00001ffffffffffe
ENDCHAR
STARTCHAR textdupe_insert_m
ENCODING 97
SWIDTH 96 0
DWIDTH 64 0
BBX 64 36 -9 -27
BITMAP
01f0000000000000
07fc000000000000
0ffe000000000000
1eef000000000000
38e3800000000000
7041c00000000000
7041c00000000000
e040e00000000000
f843e00000000000
fe0fe00000000000
f843e00000000000
e040e00000000000
7041c00000000000
7041c00000000000
38e3800000000000
1eefc00000000000
0fffe7fffffffffc
07fdfffffffffffc
01f0ffffffffffff
00007fffffffffff
00007fffffffffff
0000ffffffffffff
0000ffffffffffff
0000ffffffffffff
0000ffffffffffff
0000ffffffffffff
0000ffffffffffff
0000ffffffffffff
0000ffffffffffff
0000ffffffffffff
0000ffffffffffff
0000ffffffffffff
0000ffffffffffff
0000ffffffffffff
00003fffffffffff
00003fffffffffff
ENDCHAR
STARTCHAR textmove_insert
ENCODING 98
SWIDTH 96 0
DWIDTH 64 0
BBX 64 33 -9 -24
BITMAP
0040000000000000
01f0000000000000
064c000000000000
0842000000000000
1041000000000000
2040800000000000
2040800000000000
4040400000000000
4040400000000000
fe0fe00000000000
4040400000000000
4040400000000000
2040800000000000
2040800000000000
1041000000000000
0843800000000000
064dc00000000000
01f0e7fffffffff8
0040780000000008
0000300000000008
0000200000000808
0000400000000408
0000400000000a08
0000400000000508
0000400000000a88
0000400000000508
0000400000000a08
0000400000000408
0000400000000808
0000400000000008
0000400000000008
0000400000000008
00007ffffffffff8
ENDCHAR
STARTCHAR textmove_insert_m
ENCODING 99
SWIDTH 96 0
DWIDTH 64 0
BBX 64 34 -9 -25
BITMAP
01f0000000000000
07fc000000000000
0ffe000000000000
1eef000000000000
38e3800000000000
7041c00000000000
7041c00000000000
e040e00000000000
f843e00000000000
fe0fe00000000000
f843e00000000000
e040e00000000000
7041c00000000000
7041c00000000000
38e3800000000000
1eefc00000000000
0fffe7fffffffffc
07fdfffffffffffc
01f0fffffffffffc
00007ffffffffffc
00007ffffffffffc
0000fffffffffffc
0000fffffffffffc
0000fffffffffffc
0000fffffffffffc
0000fffffffffffc
0000fffffffffffc
0000fffffffffffc
0000fffffffffffc
0000fffffffffffc
0000fffffffffffc
0000fffffffffffc
0000fffffffffffc
0000fffffffffffc
ENDCHAR
STARTCHAR datadupe_drop
ENCODING 100
SWIDTH 96 0
DWIDTH 48 0
BBX 48 36 -9 -27
BITMAP
000000000000
000000000000
01f000000000
07fc00000000
0ffe00000000
1e0f00000000
1c0700000000
38e380000000
39f380000000
39f380000000
39f380000000
38e380000000
1c0700000000
1e0f00000000
0fff00000000
07ff80000000
01f1c0000000
0000e7fffc00
000078000400
000030000500
000020000500
000040000500
000040000500
000040000500
000040000500
000040000500
000040000500
000040000500
000040000500
000040000500
000040000500
000040000500
000040000500
00007ffffd00
000000000100
00001fffff00
ENDCHAR
STARTCHAR datadupe_drop_m
ENCODING 101
SWIDTH 96 0
DWIDTH 48 0
BBX 48 37 -9 -28
BITMAP
000000000000
03f800000000
0ffe00000000
1fff00000000
3fff80000000
3e0f80000000
7ce7c0000000
79f3c0000000
7bfbc0000000
7bfbc0000000
7bfbc0000000
79f3c0000000
7ce7c0000000
3e0f80000000
3fff80000000
1fffc0000000
0fffe7fffe00
03f9fffffe00
0000ffffff80
00007fffff80
00007fffff80
0000ffffff80
0000ffffff80
0000ffffff80
0000ffffff80
0000ffffff80
0000ffffff80
0000ffffff80
0000ffffff80
0000ffffff80
0000ffffff80
0000ffffff80
0000ffffff80
0000ffffff80
0000ffffff80
00003fffff80
00003fffff80
ENDCHAR
STARTCHAR datadupe_insert
ENCODING 102
SWIDTH 96 0
DWIDTH 48 0
BBX 48 36 -9 -27
BITMAP
004000000000
01f000000000
064c00000000
084200000000
104100000000
204080000000
204080000000
404040000000
404040000000
fe0fe0000000
404040000000
404040000000
204080000000
204080000000
104100000000
084380000000
064dc0000000
01f0e7fffc00
004078000400
000030000500
000020000500
000040000500
000040000500
000040000500
000040000500
000040000500
000040000500
000040000500
000040000500
000040000500
000040000500
000040000500
000040000500
00007ffffd00
000000000100
00001fffff00
ENDCHAR
STARTCHAR datadupe_insert_m
ENCODING 103
SWIDTH 96 0
DWIDTH 48 0
BBX 48 37 -9 -28
BITMAP
01f000000000
07fc00000000
0ffe00000000
1eef00000000
38e380000000
7041c0000000
7041c0000000
e040e0000000
f843e0000000
fe0fe0000000
f843e0000000
e040e0000000
7041c0000000
7041c0000000
38e380000000
1eefc0000000
0fffe7fffe00
07fdfffffe00
01f0ffffff80
00007fffff80
00007fffff80
0000ffffff80
0000ffffff80
0000ffffff80
0000ffffff80
0000ffffff80
0000ffffff80
0000ffffff80
0000ffffff80
0000ffffff80
0000ffffff80
0000ffffff80
0000ffffff80
0000ffffff80
0000ffffff80
00003fffff80
00003fffff80
ENDCHAR
STARTCHAR datadupe_nodrop
ENCODING 104
SWIDTH 96 0
DWIDTH 48 0
BBX 48 36 -9 -27
BITMAP
000000000000
03f000000000
0ffc00000000
1ffe00000000
3e1f00000000
383f00000000
787f80000000
70fb80000000
71f380000000
73e380000000
77c380000000
7f8780000000
3f0700000000
3e1f00000000
1fff00000000
0fff80000000
03f1c0000000
0000e7fffc00
000078000400
000030000500
000020000500
000040000500
000040000500
000040000500
000040000500
000040000500
000040000500
000040000500
000040000500
000040000500
000040000500
000040000500
000040000500
00007ffffd00
000000000100
00001fffff00
ENDCHAR
STARTCHAR datadupe_nodrop_m
ENCODING 105
SWIDTH 96 0
DWIDTH 48 0
BBX 48 37 -9 -28
BITMAP
03f000000000
0ffc00000000
1ffe00000000
3fff00000000
7fff80000000
7e7f80000000
fcffc0000000
f9ffc0000000
fbffc0000000
fff7c0000000
ffe7c0000000
ffcfc0000000
7f9f80000000
7fff80000000
3fff80000000
1fffc0000000
0fffe7fffe00
03f1fffffe00
0000ffffff80
00007fffff80
00007fffff80
0000ffffff80
0000ffffff80
0000ffffff80
0000ffffff80
0000ffffff80
0000ffffff80
0000ffffff80
0000ffffff80
0000ffffff80
0000ffffff80
0000ffffff80
0000ffffff80
0000ffffff80
0000ffffff80
00003fffff80
00003fffff80
ENDCHAR
STARTCHAR datamove_drop
ENCODING 106
SWIDTH 96 0
DWIDTH 48 0
BBX 48 34 -9 -25
BITMAP
000000000000
000000000000
01f000000000
07fc00000000
0ffe00000000
1e0f00000000
1c0700000000
38e380000000
39f380000000
39f380000000
39f380000000
38e380000000
1c0700000000
1e0f00000000
0fff00000000
07ff80000000
01f1c0000000
0000e7fffc00
000078000400
000030000400
000020000400
000040000400
000040000400
000040000400
000040000400
000040000400
000040000400
000040000400
000040000400
000040000400
000040000400
000040000400
000040000400
00007ffffc00
ENDCHAR
STARTCHAR datamove_drop_m
ENCODING 107
SWIDTH 96 0
DWIDTH 48 0
BBX 48 35 -9 -26
BITMAP
000000000000
03f800000000
0ffe00000000
1fff00000000
3fff80000000
3e0f80000000
7ce7c0000000
79f3c0000000
7bfbc0000000
7bfbc0000000
7bfbc0000000
79f3c0000000
7ce7c0000000
3e0f80000000
3fff80000000
1fffc0000000
0fffe7fffe00
03f9fffffe00
0000fffffe00
00007ffffe00
00007ffffe00
0000fffffe00
0000fffffe00
0000fffffe00
0000fffffe00
0000fffffe00
0000fffffe00
0000fffffe00
0000fffffe00
0000fffffe00
0000fffffe00
0000fffffe00
0000fffffe00
0000fffffe00
0000fffffe00
ENDCHAR
STARTCHAR datamove_insert
ENCODING 108
SWIDTH 96 0
DWIDTH 48 0
BBX 48 34 -9 -25
BITMAP
004000000000
01f000000000
064c00000000
084200000000
104100000000
204080000000
204080000000
404040000000
404040000000
fe0fe0000000
404040000000
404040000000
204080000000
204080000000
104100000000
084380000000
064dc0000000
01f0e7fffc00
004078000400
000030000400
000020000400
000040000400
000040000400
000040000400
000040000400
000040000400
000040000400
000040000400
000040000400
000040000400
000040000400
000040000400
000040000400
00007ffffc00
ENDCHAR
STARTCHAR datamove_insert_m
ENCODING 109
SWIDTH 96 0
DWIDTH 48 0
BBX 48 35 -9 -26
BITMAP
01f000000000
07fc00000000
0ffe00000000
1eef00000000
38e380000000
7041c0000000
7041c0000000
e040e0000000
f843e0000000
fe0fe0000000
f843e0000000
e040e0000000
7041c0000000
7041c0000000
38e380000000
1eefc0000000
0fffe7fffe00
07fdfffffe00
01f0fffffe00
00007ffffe00
00007ffffe00
0000fffffe00
0000fffffe00
0000fffffe00
0000fffffe00
0000fffffe00
0000fffffe00
0000fffffe00
0000fffffe00
0000fffffe00
0000fffffe00
0000fffffe00
0000fffffe00
0000fffffe00
0000fffffe00
ENDCHAR
STARTCHAR datamove_nodrop
ENCODING 110
SWIDTH 96 0
DWIDTH 48 0
BBX 48 34 -9 -25
BITMAP
000000000000
03f000000000
0ffc00000000
1ffe00000000
3e1f00000000
383f00000000
787f80000000
70fb80000000
71f380000000
73e380000000
77c380000000
7f8780000000
3f0700000000
3e1f00000000
1fff00000000
0fff80000000
03f1c0000000
0000e7fffc00
000078000400
000030000400
000020000400
000040000400
000040000400
000040000400
000040000400
000040000400
000040000400
000040000400
000040000400
000040000400
000040000400
000040000400
000040000400
00007ffffc00
ENDCHAR
STARTCHAR datamove_nodrop_m
ENCODING 111
SWIDTH 96 0
DWIDTH 48 0
BBX 48 35 -9 -26
BITMAP
03f000000000
0ffc00000000
1ffe00000000
3fff00000000
7fff80000000
7e7f80000000
fcffc0000000
f9ffc0000000
fbffc0000000
fff7c0000000
ffe7c0000000
ffcfc0000000
7f9f80000000
7fff80000000
3fff80000000
1fffc0000000
0fffe7fffe00
03f1fffffe00
0000fffffe00
00007ffffe00
00007ffffe00
0000fffffe00
0000fffffe00
0000fffffe00
0000fffffe00
0000fffffe00
0000fffffe00
0000fffffe00
0000fffffe00
0000fffffe00
0000fffffe00
0000fffffe00
0000fffffe00
0000fffffe00
0000fffffe00
ENDCHAR
STARTCHAR insertdrop
ENCODING 112
SWIDTH 96 0
DWIDTH 32 0
BBX 32 19 -9 -10
BITMAP
00400000
01f00000
064c0000
08420000
10410000
20408000
20408000
40404000
40404000
fe0fe000
40404000
40404000
20408000
20408000
10410000
08420000
064c0000
01f00000
00400000
ENDCHAR
STARTCHAR insertdrop_m
ENCODING 113
SWIDTH 96 0
DWIDTH 32 0
BBX 32 19 -9 -10
BITMAP
01f00000
07fc0000
0ffe0000
1eef0000
38e38000
7041c000
7041c000
e040e000
f843e000
fe0fe000
f843e000
e040e000
7041c000
7041c000
38e38000
1eef0000
0ffe0000
07fc0000
01f00000
ENDCHAR
STARTCHAR insertdrop_stem
ENCODING 114
SWIDTH 96 0
DWIDTH 32 0
BBX 32 20 -9 -11
BITMAP
00400000
01f00000
064c0000
08420000
10410000
20408000
20408000
40404000
40404000
fe0fe000
40404000
40404000
20408000
20408000
10410000
08438000
064dc000
01f0e000
00407000
00002000
ENDCHAR
STARTCHAR insertdrop_stem_m
ENCODING 115
SWIDTH 96 0
DWIDTH 32 0
BBX 32 21 -9 -12
BITMAP
01f00000
07fc0000
0ffe0000
1eef0000
38e38000
7041c000
7041c000
e040e000
f843e000
fe0fe000
f843e000
e040e000
7041c000
7041c000
38e38000
1eefc000
0fffe000
07fdf000
01f0f800
00007000
00002000
ENDCHAR
STARTCHAR datamove_box
ENCODING 116
SWIDTH 96 0
DWIDTH 48 0
BBX 48 34 -9 -25
BITMAP
000000000000
000000000000
000000000000
000000000000
000000000000
000000000000
000000000000
000000000000
000000000000
000000000000
000000000000
000000000000
000000000000
000000000000
000000000000
000000000000
000000000000
000007fffc00
000008000400
000010000400
000020000400
000040000400
000040000400
000040000400
000040000400
000040000400
000040000400
000040000400
000040000400
000040000400
000040000400
000040000400
000040000400
00007ffffc00
ENDCHAR
STARTCHAR datamove_box_m
ENCODING 117
SWIDTH 96 0
DWIDTH 48 0
BBX 48 35 -9 -26
BITMAP
000000000000
000000000000
000000000000
000000000000
000000000000
000000000000
000000000000
000000000000
000000000000
000000000000
000000000000
000000000000
000000000000
000000000000
000000000000
000000000000
000007fffe00
00000ffffe00
00001ffffe00
00003ffffe00
00007ffffe00
0000fffffe00
0000fffffe00
0000fffffe00
0000fffffe00
0000fffffe00
0000fffffe00
0000fffffe00
0000fffffe00
0000fffffe00
0000fffffe00
0000fffffe00
0000fffffe00
0000fffffe00
0000fffffe00
ENDCHAR
STARTCHAR datadupe_box
ENCODING 118
SWIDTH 96 0
DWIDTH 48 0
BBX 48 36 -9 -27
BITMAP
000000000000
000000000000
000000000000
000000000000
000000000000
000000000000
000000000000
000000000000
000000000000
000000000000
000000000000
000000000000
000000000000
000000000000
000000000000
000000000000
000000000000
000007fffc00
000008000400
000010000500
000020000500
000040000500
000040000500
000040000500
000040000500
000040000500
000040000500
000040000500
000040000500
000040000500
000040000500
000040000500
000040000500
00007ffffd00
000000000100
00001fffff00
ENDCHAR
STARTCHAR datadupe_box_m
ENCODING 119
SWIDTH 96 0
DWIDTH 48 0
BBX 48 37 -9 -28
BITMAP
000000000000
000000000000
000000000000
000000000000
000000000000
000000000000
000000000000
000000000000
000000000000
000000000000
000000000000
000000000000
000000000000
000000000000
000000000000
000000000000
000007fffe00
00000ffffe00
00001fffff80
00003fffff80
00007fffff80
0000ffffff80
0000ffffff80
0000ffffff80
0000ffffff80
0000ffffff80
0000ffffff80
0000ffffff80
0000ffffff80
0000ffffff80
0000ffffff80
0000ffffff80
0000ffffff80
0000ffffff80
0000ffffff80
00003fffff80
00003fffff80
ENDCHAR
STARTCHAR drag_stem
ENCODING 120
SWIDTH 96 0
DWIDTH 32 0
BBX 32 20 -9 -11
BITMAP
00000000
00000000
00000000
00000000
00000000
00000000
00000000
00000000
00000000
00600000
00780000
003e0000
003f8000
001fe000
001fe000
000f8000
000fc000
0006e000
00067000
00002000
ENDCHAR
STARTCHAR drag_stem_m
ENCODING 121
SWIDTH 96 0
DWIDTH 32 0
BBX 32 21 -9 -12
BITMAP
00000000
00000000
00000000
00000000
00000000
00000000
00000000
00000000
00f00000
00fc0000
00ff0000
00ffc000
007ff000
007ff000
003ff000
003ff000
001fe000
001ff000
000ff800
000f7000
00002000
ENDCHAR
STARTCHAR folder
ENCODING 122
SWIDTH 96 0
DWIDTH 48 0
BBX 48 30 -20 -11
BITMAP
000000000000
000000000000
000000000000
000000000000
000000000000
0001ffc00000
000200200000
01fc001fc000
020000002000
05fe003fd000
060100403000
0400ff801800
040000001800
040000001800
040000001800
040000001800
040000001800
040000001800
040000001800
040000001800
040000001800
040000001800
040000001800
040000001800
040000001800
040000001800
040000001800
040000001800
07fffffff800
03fffffff800
ENDCHAR
STARTCHAR folder_m
ENCODING 123
SWIDTH 96 0
DWIDTH 48 0
BBX 48 31 -20 -12
BITMAP
000000000000
000000000000
000000000000
000000000000
0003ffe00000
0007fff00000
03ffffffe000
07ff007ff000
0ffe003ff800
0ffe003ff800
0fff007ffc00
0f03ffe07c00
0e01ffc03c00
0e0000003c00
0e0000003c00
0e0000003c00
0e0000003c00
0e0000003c00
0e0000003c00
0e0000003c00
0e0000003c00
0e0000003c00
0e0000003c00
0e0000003c00
0e0000003c00
0e0000003c00
0e0000003c00
0ffffffffc00
0ffffffffc00
0ffffffffc00
03fffffffc00
ENDCHAR
STARTCHAR folderstack
ENCODING 124
SWIDTH 96 0
DWIDTH 48 0
BBX 48 30 -20 -11
BITMAP
000000000000
001ffc000000
002002000000
1fc7ff7c0000
200800820000
47f1ffdf0000
680200208000
51fc001fc000
5a0000002000
55fe003fd000
560100403000
5400ff801800
540000001800
540000001800
540000001800
540000001800
540000001800
540000001800
540000001800
540000001800
540000001800
540000001800
540000001800
540000001800
740000001800
340000001800
1c0000001800
0c0000001800
07fffffff800
03fffffff800
ENDCHAR
STARTCHAR folderstack_m
ENCODING 125
SWIDTH 96 0
DWIDTH 48 0
BBX 48 31 -20 -11
BITMAP
003ffe000000
007fff000000
3ffffffe0000
7fffffff0000
ffffffff8000
ffffffffc000
ffffffffe000
ffff007ff000
fffe003ff800
fffe003ff800
ffff007ffc00
ff03ffe07c00
fe01ffc03c00
fe0000003c00
fe0000003c00
fe0000003c00
fe0000003c00
fe0000003c00
fe0000003c00
fe0000003c00
fe0000003c00
fe0000003c00
fe0000003c00
fe0000003c00
fe0000003c00
fe0000003c00
7e0000003c00
3ffffffffc00
1ffffffffc00
0ffffffffc00
07fffffffc00
ENDCHAR
ENDFONT
